<?xml version="1.0" standalone="no"?><svg xmlns="http://www.w3.org/2000/svg" viewBox="0 0 1440 320"><path fill="#bb0a1e" fill-opacity="1" d="M0,64L8.9,53.3C17.8,43,36,21,53,64C71.1,107,89,213,107,240C124.4,267,142,213,160,208C177.8,203,196,245,213,256C231.1,267,249,245,267,202.7C284.4,160,302,96,320,101.3C337.8,107,356,181,373,192C391.1,203,409,149,427,160C444.4,171,462,245,480,266.7C497.8,288,516,256,533,218.7C551.1,181,569,139,587,144C604.4,149,622,203,640,197.3C657.8,192,676,128,693,133.3C711.1,139,729,213,747,218.7C764.4,224,782,160,800,128C817.8,96,836,96,853,80C871.1,64,889,32,907,69.3C924.4,107,942,213,960,250.7C977.8,288,996,256,1013,250.7C1031.1,245,1049,267,1067,234.7C1084.4,203,1102,117,1120,106.7C1137.8,96,1156,160,1173,192C1191.1,224,1209,224,1227,213.3C1244.4,203,1262,181,1280,186.7C1297.8,192,1316,224,1333,202.7C1351.1,181,1369,107,1387,117.3C1404.4,128,1422,224,1431,272L1440,320L1440,0L1431.1,0C1422.2,0,1404,0,1387,0C1368.9,0,1351,0,1333,0C1315.6,0,1298,0,1280,0C1262.2,0,1244,0,1227,0C1208.9,0,1191,0,1173,0C1155.6,0,1138,0,1120,0C1102.2,0,1084,0,1067,0C1048.9,0,1031,0,1013,0C995.6,0,978,0,960,0C942.2,0,924,0,907,0C888.9,0,871,0,853,0C835.6,0,818,0,800,0C782.2,0,764,0,747,0C728.9,0,711,0,693,0C675.6,0,658,0,640,0C622.2,0,604,0,587,0C568.9,0,551,0,533,0C515.6,0,498,0,480,0C462.2,0,444,0,427,0C408.9,0,391,0,373,0C355.6,0,338,0,320,0C302.2,0,284,0,267,0C248.9,0,231,0,213,0C195.6,0,178,0,160,0C142.2,0,124,0,107,0C88.9,0,71,0,53,0C35.6,0,18,0,9,0L0,0Z"></path></svg>